<mxfile host="65bd71144e">
    <diagram id="oZ-N8ojqnIgom7ETz_ps" name="Strona-1">
        <mxGraphModel dx="564" dy="563" grid="1" gridSize="10" guides="1" tooltips="1" connect="1" arrows="1" fold="1" page="0" pageScale="1" pageWidth="1200" pageHeight="1600" background="none" math="0" shadow="0">
            <root>
                <mxCell id="0"/>
                <mxCell id="1" parent="0"/>
                <mxCell id="IhngpvfOUpPqSzjhf83G-5" value="" style="edgeStyle=orthogonalEdgeStyle;orthogonalLoop=1;jettySize=auto;html=1;" parent="1" source="IhngpvfOUpPqSzjhf83G-1" target="IhngpvfOUpPqSzjhf83G-4" edge="1">
                    <mxGeometry relative="1" as="geometry"/>
                </mxCell>
                <mxCell id="IhngpvfOUpPqSzjhf83G-7" value="" style="edgeStyle=orthogonalEdgeStyle;orthogonalLoop=1;jettySize=auto;html=1;" parent="1" source="IhngpvfOUpPqSzjhf83G-1" target="IhngpvfOUpPqSzjhf83G-6" edge="1">
                    <mxGeometry relative="1" as="geometry"/>
                </mxCell>
                <mxCell id="IhngpvfOUpPqSzjhf83G-1" value="App.jsx" style="whiteSpace=wrap;html=1;" parent="1" vertex="1">
                    <mxGeometry x="217" y="70" width="120" height="30" as="geometry"/>
                </mxCell>
                <mxCell id="8" value="" style="edgeStyle=none;html=1;" parent="1" source="IhngpvfOUpPqSzjhf83G-4" target="7" edge="1">
                    <mxGeometry relative="1" as="geometry"/>
                </mxCell>
                <mxCell id="IhngpvfOUpPqSzjhf83G-4" value="CourseInput" style="whiteSpace=wrap;html=1;" parent="1" vertex="1">
                    <mxGeometry x="127" y="160" width="120" height="30" as="geometry"/>
                </mxCell>
                <mxCell id="10" value="" style="edgeStyle=none;html=1;entryX=0.5;entryY=0;entryDx=0;entryDy=0;" parent="1" source="IhngpvfOUpPqSzjhf83G-6" target="11" edge="1">
                    <mxGeometry relative="1" as="geometry">
                        <mxPoint x="437" y="210" as="targetPoint"/>
                    </mxGeometry>
                </mxCell>
                <mxCell id="IhngpvfOUpPqSzjhf83G-6" value="CourseGoalList" style="whiteSpace=wrap;html=1;" parent="1" vertex="1">
                    <mxGeometry x="317" y="160" width="120" height="30" as="geometry"/>
                </mxCell>
                <mxCell id="7" value="UI/Button" style="whiteSpace=wrap;html=1;" parent="1" vertex="1">
                    <mxGeometry x="127" y="240" width="120" height="30" as="geometry"/>
                </mxCell>
                <mxCell id="9" value="CourseGoalItem" style="whiteSpace=wrap;html=1;" parent="1" vertex="1">
                    <mxGeometry x="317" y="300" width="120" height="30" as="geometry"/>
                </mxCell>
                <mxCell id="12" style="edgeStyle=none;html=1;exitX=0.5;exitY=1;exitDx=0;exitDy=0;entryX=0.5;entryY=0;entryDx=0;entryDy=0;" parent="1" source="11" target="9" edge="1">
                    <mxGeometry relative="1" as="geometry"/>
                </mxCell>
                <mxCell id="11" value="map()" style="rhombus;whiteSpace=wrap;html=1;" parent="1" vertex="1">
                    <mxGeometry x="347" y="220" width="60" height="50" as="geometry"/>
                </mxCell>
                <mxCell id="13" value="" style="whiteSpace=wrap;html=1;" parent="1" vertex="1">
                    <mxGeometry x="270" y="280" width="120" height="60" as="geometry"/>
                </mxCell>
                <mxCell id="14" value="" style="whiteSpace=wrap;html=1;" vertex="1" parent="1">
                    <mxGeometry x="270" y="280" width="120" height="60" as="geometry"/>
                </mxCell>
            </root>
        </mxGraphModel>
    </diagram>
</mxfile>